<?xml version="1.0" standalone="no"?>
<!DOCTYPE svg PUBLIC "-//W3C//DTD SVG 20010904//EN"
 "http://www.w3.org/TR/2001/REC-SVG-20010904/DTD/svg10.dtd">
<svg version="1.0" xmlns="http://www.w3.org/2000/svg"
 width="256.000000pt" height="256.000000pt" viewBox="0 0 256.000000 256.000000"
 preserveAspectRatio="xMidYMid meet">
<metadata>
Created by potrace 1.14, written by Peter Selinger 2001-2017
</metadata>
<g transform="translate(0.000000,256.000000) scale(0.100000,-0.100000)"
fill="#000000" stroke="none">
<path d="M535 2318 c133 -134 252 -252 264 -262 21 -19 21 -19 192 153 153
153 170 173 158 188 -8 9 -46 50 -86 90 l-72 73 -349 0 -349 0 242 -242z"/>
<path d="M1196 2181 l-380 -380 171 -170 c94 -94 175 -171 179 -171 8 0 1094
1086 1094 1095 0 3 -154 5 -343 5 l-342 0 -379 -379z"/>
<path d="M0 1916 l0 -343 376 -377 c207 -207 378 -376 381 -376 7 0 343 337
343 344 0 7 -1088 1096 -1095 1096 -3 0 -5 -155 -5 -344z"/>
<path d="M2293 2004 c-139 -140 -253 -256 -253 -259 0 -6 338 -345 344 -345 2
0 42 39 90 86 l86 87 0 343 c0 189 -3 344 -7 343 -5 0 -122 -115 -260 -255z"/>
<path d="M1629 1571 c-93 -93 -169 -172 -169 -175 0 -7 1088 -1096 1095 -1096
3 0 5 155 5 344 l0 343 -376 377 c-207 207 -378 376 -381 376 -3 0 -81 -76
-174 -169z"/>
<path d="M86 1074 l-86 -86 0 -349 0 -349 260 259 c143 143 260 262 260 265 0
6 -338 346 -344 346 -1 0 -42 -39 -90 -86z"/>
<path d="M838 550 l-549 -550 348 0 348 0 379 379 380 380 -171 170 c-94 94
-175 171 -179 171 -4 0 -254 -247 -556 -550z"/>
<path d="M1566 350 c-152 -153 -167 -171 -155 -187 8 -9 47 -50 87 -90 l72
-73 345 0 c190 0 345 2 345 4 0 7 -512 516 -519 515 -3 0 -82 -76 -175 -169z"/>
</g>
</svg>
